<?xml version="1.0" encoding="UTF-8"?>
<svg id="Layer_1" data-name="Layer 1" xmlns="http://www.w3.org/2000/svg" viewBox="0 0 686.71 205.72">
  <path d="M55.27,93.09c-2.93-8.45-5.79-16.93-8.58-25.44-2.66,8.78-5.29,17.56-7.88,26.34-2.59,8.78-5.09,17.62-7.48,26.54,1.2-.53,2.63-1.23,4.29-2.1,1.66-.86,3.39-1.66,5.19-2.39,1.8-.73,3.56-1.36,5.29-1.89,1.73-.53,3.26-.8,4.59-.8,2.13,0,4.56.4,7.28,1.2,2.73.8,4.75,2.13,6.09,3.99-2.93-8.51-5.85-16.99-8.78-25.44M107.15,159.03c-7.58-.13-15.23-.2-22.95-.2s-15.16.13-22.75.4v-1.2l14.37-3.39-10.97-33.52c-1.86-.93-4.26-.93-7.18,0-2.93.93-6.05,2.13-9.38,3.59-3.33,1.46-6.75,2.93-10.28,4.39-3.52,1.46-6.82,2.33-9.87,2.6l-6.58,22.94,16.36,3.39v1.2c-12.64-.4-25.27-.4-37.91,0v-1.2l12.57-3.59c1.46-3.86,2.93-7.72,4.39-11.57,1.46-3.86,2.73-7.78,3.79-11.77-5.32-1.33-8.41-3.79-9.28-7.38-.86-3.59-.03-7.51,2.5-11.77-1.33,4.52-1.16,7.62.5,9.28,1.66,1.66,4.62,2.36,8.88,2.1,3.86-14.1,7.88-28.03,12.07-41.8,4.19-13.77,8.02-27.77,11.48-42h7.18c6.52,19.42,13.2,38.64,20.05,57.66,6.85,19.02,13.8,38.18,20.85,57.46l12.17,3.39v1.2-.2Z" style="fill: #fff;"/>
  <path d="M155.93,93.79c-2.99-3.46-6.35-5.19-10.08-5.19s-6.88,1.73-9.88,5.19c-2.99,3.46-4.49,8.72-4.49,15.76s1.5,12.97,4.49,16.96c2.99,3.99,6.32,6.09,9.97,6.28,3.66.2,6.99-1.63,9.98-5.48,2.99-3.86,4.49-9.98,4.49-18.36,0-6.65-1.5-11.71-4.49-15.17M191.85,93.69c-.33,2.06-1.56,3.29-3.69,3.69-2,.4-3.46.24-4.39-.5-.93-.73-1.63-1.6-2.09-2.59-.46-1-.87-1.96-1.2-2.89-.33-.93-.83-1.4-1.49-1.4-1.2,0-2.17.5-2.9,1.5-.73,1-1.26,2.16-1.6,3.49-.33,1.33-.53,2.73-.6,4.19-.07,1.47-.1,2.6-.1,3.39.13,4.66-.24,8.98-1.1,12.97-.87,3.99-2.39,7.45-4.59,10.37-2.19,2.93-5.05,5.25-8.58,6.98-3.53,1.73-7.82,2.59-12.87,2.59-2.66,0-5.29-.27-7.88-.8-2.59-.53-5.02-1.53-7.28-2.99-1.46.8-2.96,1.89-4.49,3.29-1.53,1.4-2.29,3.02-2.29,4.89,0,2.8,1.63,4.96,4.89,6.49,3.26,1.53,7.35,2.86,12.27,3.99,4.92,1.13,10.24,2.26,15.96,3.4,5.72,1.13,11.04,2.76,15.97,4.89,4.92,2.13,9.01,4.89,12.27,8.28,3.26,3.39,4.89,7.94,4.89,13.67,0,5.06-1.13,9.21-3.39,12.47-2.26,3.26-5.19,5.82-8.78,7.68-3.59,1.86-7.55,3.16-11.87,3.89-4.32.73-8.55,1.1-12.67,1.1h-31.33v-1.8c2.13-.14,5.12-.24,8.98-.3,3.86-.07,7.98-.24,12.37-.5,4.39-.27,8.88-.74,13.47-1.4,4.59-.67,8.75-1.7,12.47-3.09,3.72-1.4,6.75-3.16,9.08-5.29,2.33-2.13,3.49-4.86,3.49-8.18,0-4.26-1.63-7.52-4.89-9.78-3.26-2.26-7.35-4.09-12.27-5.49-4.92-1.4-10.21-2.6-15.86-3.59-5.65-1-10.94-2.33-15.86-3.99-4.92-1.66-9.01-3.92-12.27-6.78-3.26-2.86-4.89-6.88-4.89-12.07,0-3.32,1.23-6.05,3.69-8.18,2.46-2.13,5.02-3.92,7.68-5.39-3.19-2.93-5.69-6.19-7.48-9.78-1.8-3.59-2.69-7.58-2.69-11.97,0-6.65,2.06-11.9,6.19-15.76,4.12-3.86,9.04-6.28,14.77-7.28,5.72-1,11.51-.6,17.36,1.2,5.85,1.8,10.57,5.02,14.17,9.68.4-3.06,1.5-5.69,3.29-7.88,1.79-2.2,3.79-3.72,5.98-4.59,2.19-.86,4.39-.93,6.58-.2,2.19.73,3.89,2.36,5.09,4.89.66,1.59.83,3.42.5,5.49" style="fill: #fff;"/>
  <path d="M252.3,103.47c-1.66,1.53-3.52,2.39-5.59,2.6-2.06.2-3.96-.2-5.69-1.2-1.73-1-2.59-2.49-2.59-4.49,0-1.2.33-2.72,1-4.59.67-1.86.53-3.26-.4-4.19-.67-.66-1.47-1.06-2.39-1.2-.93-.13-1.86-.07-2.79.2-.93.26-1.86.63-2.79,1.1-.93.46-1.67.97-2.2,1.5-2.39,1.86-4.16,4.09-5.29,6.68-1.13,2.59-1.93,5.36-2.4,8.28-.47,2.93-.7,5.92-.7,8.98v8.38c0,4.92-.04,9.78-.1,14.57-.07,4.79-.04,9.64.1,14.57l11.77,3.59v1c-13.04-.4-26.07-.4-39.11,0v-1l12.57-3.59v-63.65l-10.57-3.19v-1.4c3.86,0,7.65-.17,11.37-.5,3.72-.33,7.52-.89,11.38-1.7l2.79,1.8c-.27,2-.37,4.06-.3,6.19.07,2.13.1,4.19.1,6.19,1.6-4.26,4.26-7.65,7.98-10.18,3.72-2.53,7.55-3.99,11.47-4.39,3.92-.4,7.38.43,10.37,2.49,2.99,2.06,4.49,5.49,4.49,10.27,0,3.06-.83,5.36-2.5,6.89" style="fill: #fff;"/>
  <path d="M323.53,103.36c-2.33-5.05-5.19-8.88-8.58-11.47-3.39-2.59-7.08-3.89-11.07-3.89s-7.45,1.3-10.78,3.89c-3.33,2.59-6.09,6.49-8.28,11.67-2.2,5.19-3.29,11.64-3.29,19.36s1.13,14.6,3.39,19.85c2.26,5.25,5.12,9.11,8.58,11.57,3.46,2.46,7.15,3.63,11.07,3.49,3.92-.13,7.55-1.56,10.87-4.29,3.32-2.73,6.08-6.72,8.28-11.97,2.19-5.25,3.29-11.67,3.29-19.25s-1.16-13.9-3.49-18.96M337.1,143.97c-3.79,5.79-8.58,10.14-14.37,13.07-5.79,2.93-12.01,4.39-18.66,4.39s-12.87-1.43-18.66-4.29c-5.79-2.86-10.61-7.18-14.46-12.97-3.86-5.79-5.85-13.01-5.99-21.65-.14-8.38,1.69-15.4,5.49-21.05,3.79-5.65,8.58-9.91,14.37-12.77,5.79-2.86,12.07-4.32,18.86-4.39,6.78-.07,13.07,1.3,18.86,4.09,5.79,2.79,10.61,7.02,14.47,12.67,3.86,5.65,5.79,12.74,5.79,21.25s-1.9,15.86-5.69,21.65" style="fill: #fff;"/>
  <path d="M395.26,122.92c-7.05,0-12.61,1.16-16.66,3.49-4.06,2.33-6.82,5.09-8.28,8.28-1.46,3.19-1.83,6.38-1.1,9.58.73,3.19,2.26,5.62,4.59,7.28,2.33,1.66,5.35,2.2,9.08,1.6,3.72-.6,7.85-3.16,12.37-7.68v-22.55ZM418.81,151.75c-.67,1.8-1.5,3.36-2.49,4.69-1,1.33-2.29,2.39-3.89,3.19-1.6.8-3.53,1.2-5.79,1.2-3.06,0-5.72-.87-7.98-2.59-2.26-1.73-3.39-4.26-3.39-7.58-2.93,3.46-6.65,5.95-11.17,7.48-4.53,1.53-8.98,2.29-13.37,2.29-4.79,0-8.72-1.33-11.77-3.99-3.06-2.66-4.59-6.45-4.59-11.38s1.43-8.98,4.29-12.17c2.86-3.19,6.39-5.75,10.58-7.68,4.19-1.93,8.65-3.32,13.37-4.19,4.72-.87,9.01-1.43,12.87-1.7v-15.56c0-4.52-.97-8.15-2.89-10.87-1.93-2.73-5.36-4.09-10.28-4.09-.93,0-2.13.14-3.59.4-1.47.26-2.89.66-4.29,1.2-1.4.53-2.63,1.23-3.69,2.09-1.07.87-1.6,1.9-1.6,3.09,0,.27.63,1.06,1.89,2.4,1.27,1.33,1.9,3.13,1.9,5.38,0,2-.7,3.53-2.09,4.59-1.39,1.07-2.96,1.56-4.69,1.5-1.73-.06-3.29-.7-4.69-1.89-1.4-1.2-2.1-2.99-2.1-5.39,0-3.46,1.03-6.45,3.09-8.98,2.06-2.53,4.66-4.52,7.78-5.99,3.13-1.46,6.62-2.43,10.48-2.89,3.86-.47,7.58-.37,11.17.3,3.59.67,6.82,1.89,9.68,3.69,2.86,1.8,4.89,4.16,6.09,7.08,1.46,3.59,2.2,7.58,2.2,11.97v12.17c1.46.4,2.99.8,4.59,1.2,1.6.4,3.13.87,4.59,1.4v.8h-9.38c-.14,4.39-.23,8.78-.3,13.17-.07,4.39-.1,8.78-.1,13.17,0,1.06.33,2.06,1,2.99.67.93,1.53,1.4,2.6,1.4,1.86,0,3.29-.87,4.29-2.6,1-1.73,1.7-3.32,2.1-4.79h1.39c-.53,1.86-1.13,3.69-1.8,5.49" style="fill: #fff;"/>
  <path d="M484.35,103.47c-1.66,1.53-3.52,2.39-5.59,2.6-2.06.2-3.96-.2-5.69-1.2-1.73-1-2.59-2.49-2.59-4.49,0-1.2.33-2.72,1-4.59.66-1.86.53-3.26-.4-4.19-.66-.66-1.47-1.06-2.4-1.2-.93-.13-1.86-.07-2.79.2-.93.26-1.86.63-2.79,1.1-.93.46-1.67.97-2.2,1.5-2.39,1.86-4.16,4.09-5.29,6.68-1.13,2.59-1.93,5.36-2.39,8.28-.47,2.93-.7,5.92-.7,8.98v8.38c0,4.92-.03,9.78-.1,14.57-.07,4.79-.04,9.64.1,14.57l11.77,3.59v1c-13.04-.4-26.07-.4-39.11,0v-1l12.57-3.59v-63.65l-10.57-3.19v-1.4c3.86,0,7.65-.17,11.37-.5,3.73-.33,7.52-.89,11.38-1.7l2.79,1.8c-.27,2-.37,4.06-.3,6.19.07,2.13.1,4.19.1,6.19,1.6-4.26,4.26-7.65,7.98-10.18,3.72-2.53,7.55-3.99,11.47-4.39,3.92-.4,7.38.43,10.37,2.49,2.99,2.06,4.49,5.49,4.49,10.27,0,3.06-.84,5.36-2.5,6.89" style="fill: #fff;"/>
  <path d="M584.21,159.23v-1l11.77-3.79v-45.69c0-3.19-.37-6.19-1.1-8.98-.73-2.79-2-5.15-3.79-7.08-1.8-1.93-4.49-2.89-8.08-2.89-4.26,0-7.72,1.2-10.38,3.59-2.66,2.39-5.12,5.12-7.38,8.18.4,17.83.6,35.52.6,53.07l11.97,3.59v1c-12.77-.4-25.47-.4-38.11,0v-1l11.77-3.59v-47.49c0-1.99-.1-3.99-.3-5.99-.2-2-.67-3.83-1.4-5.49-.73-1.66-1.83-3.03-3.29-4.09-1.47-1.06-3.46-1.6-5.98-1.6-1.6,0-3.33.43-5.19,1.3-1.86.87-3.69,1.96-5.49,3.29-1.8,1.33-3.46,2.73-4.99,4.19-1.53,1.46-2.76,2.79-3.69,3.99-.67,17.29-.67,34.59,0,51.88l11.97,3.59v1c-13.3-.4-26.54-.4-39.71,0v-1l12.77-3.59c0-10.77.07-21.41.2-31.92.13-10.51.07-21.15-.2-31.93l-10.57-2.99v-1.2c4.39-.27,8.31-.56,11.77-.9,3.46-.33,7.38-.9,11.77-1.7l1.79,1.4v12.17c2.93-3.59,6.25-6.68,9.98-9.28,3.72-2.59,7.98-3.89,12.77-3.89s9.11.97,12.57,2.89c3.46,1.93,6.05,5.29,7.78,10.08,2.79-3.86,5.65-6.98,8.58-9.38,2.93-2.39,6.92-3.59,11.97-3.59,5.72,0,10.31.83,13.77,2.5,3.46,1.66,6.08,3.96,7.88,6.88,1.8,2.93,2.96,6.42,3.49,10.48.53,4.06.8,8.48.8,13.27-.27,12.37-.27,24.74,0,37.11l11.37,3.59v1c-12.64-.4-25.21-.4-37.71,0" style="fill: #fff;"/>
  <path d="M628.65,50.18c-5.7,5.21-45.69-3.74-48.35-13.26-2.66-9.52,24-32.59,34.05-29.85,10.04,2.76,20.01,37.88,14.31,43.11" style="fill: #fff;"/>
  <path d="M645.83,42.2c-9.35-6.97-3.7-37.22,5.15-41.62,8.85-4.4,36.52,17.46,35.7,27.84-.82,10.38-31.5,20.75-40.85,13.77" style="fill: #fff;"/>
  <path d="M655.28,97.44c-11.64-.71-23.49-29.1-18.5-37.64,4.99-8.53,40.12-5.41,45.12,3.72,5.01,9.12-14.98,34.62-26.62,33.92" style="fill: #fff;"/>
</svg>