<?xml version="1.0" encoding="UTF-8"?>
<svg id="Layer_1" data-name="Layer 1" xmlns="http://www.w3.org/2000/svg" viewBox="0 0 328.24 300.1">
  <path d="M149.47,154.52C131.91,170.57,8.78,143.02.57,113.69-7.63,84.38,74.48,13.32,105.42,21.78c30.92,8.48,61.6,116.65,44.05,132.74" style="fill: #007d41;"/>
  <path d="M202.38,129.93c-28.8-21.46-11.41-114.6,15.86-128.15,27.26-13.56,112.47,53.75,109.94,85.74-2.51,31.97-97,63.9-125.8,42.41" style="fill: #007d41;"/>
  <path d="M231.46,300.05c-35.85-2.18-72.33-89.62-56.97-115.9,15.37-26.26,123.53-16.67,138.95,11.47,15.42,28.1-46.12,106.6-81.98,104.44" style="fill: #007d41;"/>
</svg>
